PathFileType	4	(X/Y/Z)	RBDS08\RBDS08runT35.trc
DataRate	CameraRate	NumFrames	NumMarkers	Units	OrigDataRate	OrigDataStartFrame	OrigNumFrames
150.000000	150.000000	4	33	mm	150.000000	1687	4500
Frame#	Time	L.ASIS			L.Heel.Bottom			L.Heel.Lateral			L.Heel.Top			L.Iliac.Crest			L.MT1			L.MT5			L.PSIS			L.Shank.Bottom.Lateral			L.Shank.Bottom.Medial			L.Shank.Top.Lateral			L.Shank.Top.Medial			L.Thigh.Bottom.Lateral			L.Thigh.Bottom.Medial			L.Thigh.Top.Lateral			L.Thigh.Top.Medial			R.ASIS			R.ASY			R.Heel.Bottom			R.Heel.Lateral			R.Heel.Top			R.Iliac.Crest			R.MT1			R.MT5			R.PSIS			R.Shank.Bottom.Lateral			R.Shank.Bottom.Medial			R.Shank.Top.Lateral			R.Shank.Top.Medial			R.Thigh.Bottom.Lateral			R.Thigh.Bottom.Medial			R.Thigh.Top.Lateral			R.Thigh.Top.Medial			
		X1	Y1	Z1	X2	Y2	Z2	X3	Y3	Z3	X4	Y4	Z4	X5	Y5	Z5	X6	Y6	Z6	X7	Y7	Z7	X8	Y8	Z8	X9	Y9	Z9	X10	Y10	Z10	X11	Y11	Z11	X12	Y12	Z12	X13	Y13	Z13	X14	Y14	Z14	X15	Y15	Z15	X16	Y16	Z16	X17	Y17	Z17	X18	Y18	Z18	X19	Y19	Z19	X20	Y20	Z20	X21	Y21	Z21	X22	Y22	Z22	X23	Y23	Z23	X24	Y24	Z24	X25	Y25	Z25	X26	Y26	Z26	X27	Y27	Z27	X28	Y28	Z28	X29	Y29	Z29	X30	Y30	Z30	X31	Y31	Z31	X32	Y32	Z32	X33	Y33	Z33	

1688	11.24666666666667	2141.372598203356	1006.623876736736	912.0387903477802	1441.551124350664	466.0807058669087	981.289414553337	1460.165361886009	437.8800751701216	935.0358366787602	1491.617684661841	456.3935656932812	984.8505179624311	2094.892107478118	1090.305887253773	888.5863592459807	1479.845471622737	241.358647535375	1010.314207473495	1456.917954945442	281.8037784937171	908.4856549568354	1974.670631296481	1051.913721576534	974.2693269797935	1576.006794918885	424.331668346146	927.9590740147885	1564.66559764914	458.3679488452945	965.4109569375875	1649.579251326303	458.0658615256958	916.9280060348809	1642.062183349257	492.2408321415659	957.1263843405136	1966.714139642166	631.3763497127587	879.2961015744618	1908.581412231367	647.9009010650916	920.4494412814547	1981.49631240501	739.4474071336754	860.1520694901344	1927.813242339465	755.201141129476	902.9653962131379	2130.769001282182	1020.432538384349	1132.442146932723	-2291213650.56639	561439789.0289623	-1196658218.056587	2249.006065477851	26.17311754860847	1067.006218589444	2273.318056029665	49.33486076826998	1106.840527759572	2243.05709370977	75.66382108379655	1066.575251328192	2073.64857780738	1086.747083212553	1178.726177994758	2449.014634958754	121.5007482512522	1009.314635761224	2429.737330338658	100.4401224681244	1115.467599416516	1974.272350040944	1053.142894265151	1079.216581675341	2274.275002768106	196.7347177767851	1120.786229268416	2238.701576131759	198.5133664246879	1078.066813979158	2254.531476343273	274.0662761044554	1136.098965338127	2222.989586464675	276.1236020090704	1091.944186368489	2219.141912620917	631.9955859986811	1171.336831185396	2164.301720209844	604.5053047215719	1131.504755796005	2158.759722509699	721.9647566181035	1192.373052115399	2106.315584759843	694.9165483619626	1156.220789333581	
1689	11.25333333333333	2142.10558513077	1001.985518389506	912.229408302305	1451.867494886838	479.9180375752797	981.0020855871617	1469.368635316039	450.8847484071489	934.8883994612048	1501.471876419234	468.0004922074987	984.9843131367297	2094.331703073347	1085.275931545121	887.7922959749674	1479.943425757922	253.5533108666174	1009.980156566778	1459.322822113372	295.1217161562234	908.0617173918496	1974.963782184767	1046.130396936361	973.0268367994679	1584.143272724735	432.2562407690233	928.016086532154	1574.407174836211	466.4456325803445	965.8362347615497	1659.178457606518	462.5247211077328	917.40661630869	1653.274137415412	496.7025979876511	957.8551990014089	1974.81853711109	622.9056497240365	879.8106059109969	1916.534395675899	638.0734610351449	921.284480684016	1987.177787774745	731.240088181844	860.7467702414116	1933.221857382671	745.7596069480169	903.6847543685174	2130.872916902965	1016.728482030189	1132.709035670135	-2296207202.206425	562663963.7280686	-1199265779.624381	2241.338202821996	23.30782085091646	1068.022592829697	2267.197015810471	45.66389767335985	1107.29316619056	2237.35591385575	72.56385219444294	1067.19760213842	2073.177332259404	1082.831559699668	1178.147249855833	2442.333024306017	111.865476817628	1006.901547145125	2424.483453512967	91.73209266834637	1113.473206593764	1973.695063556128	1048.210548957782	1078.179830917017	2270.123889823986	189.2957726543552	1120.669241026566	2234.059537036758	191.0612757300227	1078.264607702893	2250.458370705594	266.5730989937247	1136.291720461027	2218.354249101417	268.6186522520493	1092.435262994075	2215.078386304566	625.7778031473873	1171.783271751071	2159.718665397204	598.7491941671915	1132.528092575978	2155.993709820067	716.6596242862623	1192.802582551717	2103.087762359059	690.1629102445492	1157.103326072539	
1690	11.26	2142.784111239181	996.7073247995141	912.586265839915	1463.906134587544	493.0028480682974	981.2420509573683	1480.138728052448	463.2762182625606	935.1634711696472	1512.986819355428	478.9201091267531	985.4422629914606	2094.106342052698	1079.417226581628	887.0428963763943	1481.83623215424	265.3552197739343	1009.489195445821	1463.263188729183	308.1309913232876	907.6755174057198	1975.096053597899	1039.771545028176	971.7933976401079	1593.632503996277	439.597146923429	928.1369477684738	1585.533215368998	473.8546133706907	966.3349603736534	1669.899363627781	466.3769616672662	917.8077106427409	1665.66367778377	500.4495269493066	958.5518894687527	1982.950724704911	614.1770938592355	880.2064348092927	1924.607793031996	627.872760970833	922.1266829259412	1992.78810113776	722.7741294827829	861.4057007643898	1938.695593615214	735.9236234278982	904.6187626697609	2130.867892231069	1012.444648105273	1133.238145304408	-2301208003.959157	563889916.6132269	-1201877126.416823	2230.040278168544	21.87682710083241	1068.567835104961	2257.320426478008	43.28412282211993	1107.386644786334	2228.574813315783	70.87506125993336	1067.159174730303	2072.719230557251	1078.363362186673	1177.60118180023	2433.06506703726	101.4224546079745	1005.433391392118	2415.761861691794	82.73358010455136	1112.278639555585	1972.818131380853	1042.86741025692	1077.055398568758	2263.693024106145	182.6161191020872	1120.108660980591	2227.492818504778	184.6672899111337	1077.82123434001	2244.741564392168	259.9902495885784	1135.941413090239	2212.438722449368	262.2563965213639	1092.228730810119	2211.648687162371	620.0821951795385	1172.2595802057	2155.824656272041	593.2993499554041	1133.648785173038	2153.511188835912	711.6098694253262	1193.340788496011	2100.232897084951	685.470340078362	1158.125917977956	
1691	11.26666666666667	2143.34972755575	990.8286046686895	913.1270884287712	1477.4610123166	505.1793585287805	981.9726702363143	1492.364026836023	474.9379384303585	935.8269620655203	1525.974437863795	489.0525028617144	986.2209217691766	2094.230006044644	1072.794946064691	886.3797156056017	1485.570577624425	276.6379383256481	1008.835621158211	1468.848189277444	320.7172928747094	907.284354438204	1975.000886995912	1032.916072352532	970.6030693853304	1604.418108676428	446.2983686794437	928.3525169815132	1597.960208991305	480.5709783952578	966.8947932756565	1681.694052727244	469.6085452590501	918.1445519334915	1679.146226992433	503.4944356789651	959.1981581099674	1991.130774439888	605.2817127868949	880.4898596954064	1932.799667982773	617.3917514866245	922.9343628165535	1998.335911793164	714.1371290827778	862.1191588265805	1944.219753534243	725.787781727796	905.7176420698258	2130.676233563924	1007.636210342576	1134.049704991769	-2306216061.083945	565117648.9749602	-1204492261.1793	2215.453023613954	21.66556076893662	1068.666353825988	2243.971299286893	42.05004960853702	1107.152803423851	2216.860065534945	70.38696201441589	1066.519304185204	2072.228651187383	1073.322659201166	1177.097510549648	2421.304500527744	90.68055231040424	1004.767704913846	2403.79092531189	73.84083915058847	1111.786956855471	1971.593548823155	1037.175482278644	1075.838482841264	2255.089027259224	176.821079907691	1119.171774857668	2219.030633548292	179.4714023320834	1076.849808877004	2237.483960533876	254.4221887423915	1135.144529812856	2205.278164196299	257.1603359940536	1091.453227386953	2208.762063627597	614.9093860489368	1172.776746210728	2152.578945781573	588.1998892029721	1134.756597184929	2151.189030390848	706.8034939578795	1193.987774219526	2097.660005959645	680.8546048015221	1159.187718268872	
